# xmcd
#
# Track frame offsets: 
#        150
#        18137
#        32700
#        48300
#        65625
#        84160
#        103325
#        119912
#        136112
#        154225
#
# Disc length: 2253 seconds
#
# Revision: 6
# Processed by: cddbd v1.5.2PL0 Copyright (c) Steve Scherf et al.
# Submitted via: ExactAudioCopyFreeDBPlugin 1.0
#
DISCID=8208cb0a
DTITLE=Ronnie Milsap - Greatest Hits (Volume. 2)
DYEAR=1900
DGENRE=Country
TTITLE0=She Keeps The Home Fires Burning
TTITLE1=(There's) No Gettin' Over Me
TTITLE2=I Wouldn't Have Missed It For The World
TTITLE3=It's Already Taken
TTITLE4=Stranger In My House
TTITLE5=Lost In The Fifties Tonight (In The Still Of The Night)
TTITLE6=Any Day Now
TTITLE7=Am I Losing You
TTITLE8=Inside
TTITLE9=Don't You Know How Much I Love You
EXTD=
EXTT0=
EXTT1=
EXTT2=
EXTT3=
EXTT4=
EXTT5=
EXTT6=
EXTT7=
EXTT8=
EXTT9=
PLAYORDER=
